<mxfile host="app.diagrams.net" modified="2022-03-25T08:18:34.934Z" agent="5.0 (Macintosh; Intel Mac OS X 10_15_7) AppleWebKit/537.36 (KHTML, like Gecko) Chrome/99.0.4844.83 Safari/537.36" etag="-NHmyEj6_rg3zhV5f-id" version="17.2.1" type="github">
  <diagram id="cVbLFFrmrzpO8klgUx0P" name="Page-1">
    <mxGraphModel dx="2975" dy="2152" grid="1" gridSize="10" guides="1" tooltips="1" connect="1" arrows="1" fold="1" page="1" pageScale="1" pageWidth="827" pageHeight="1169" math="0" shadow="0">
      <root>
        <mxCell id="0" />
        <mxCell id="1" parent="0" />
        <mxCell id="EULpzarY96xiYEv2TJPT-1" value="VPC" style="points=[[0,0],[0.25,0],[0.5,0],[0.75,0],[1,0],[1,0.25],[1,0.5],[1,0.75],[1,1],[0.75,1],[0.5,1],[0.25,1],[0,1],[0,0.75],[0,0.5],[0,0.25]];outlineConnect=0;gradientColor=none;html=1;whiteSpace=wrap;fontSize=12;fontStyle=0;container=1;pointerEvents=0;collapsible=0;recursiveResize=0;shape=mxgraph.aws4.group;grIcon=mxgraph.aws4.group_vpc;strokeColor=#248814;fillColor=none;verticalAlign=top;align=left;spacingLeft=30;fontColor=#AAB7B8;dashed=0;" vertex="1" parent="1">
          <mxGeometry x="60.5" y="260" width="689.5" height="840" as="geometry" />
        </mxCell>
        <mxCell id="EULpzarY96xiYEv2TJPT-2" value="Public subnet" style="points=[[0,0],[0.25,0],[0.5,0],[0.75,0],[1,0],[1,0.25],[1,0.5],[1,0.75],[1,1],[0.75,1],[0.5,1],[0.25,1],[0,1],[0,0.75],[0,0.5],[0,0.25]];outlineConnect=0;gradientColor=none;html=1;whiteSpace=wrap;fontSize=12;fontStyle=0;container=1;pointerEvents=0;collapsible=0;recursiveResize=0;shape=mxgraph.aws4.group;grIcon=mxgraph.aws4.group_security_group;grStroke=0;strokeColor=#248814;fillColor=#E9F3E6;verticalAlign=top;align=left;spacingLeft=30;fontColor=#248814;dashed=0;" vertex="1" parent="EULpzarY96xiYEv2TJPT-1">
          <mxGeometry x="69.5" y="382" width="240.5" height="208" as="geometry" />
        </mxCell>
        <mxCell id="EULpzarY96xiYEv2TJPT-3" value="" style="outlineConnect=0;dashed=0;verticalLabelPosition=bottom;verticalAlign=top;align=center;html=1;shape=mxgraph.aws3.ec2;fillColor=#F58534;gradientColor=none;" vertex="1" parent="EULpzarY96xiYEv2TJPT-2">
          <mxGeometry x="80" y="70" width="76.5" height="93" as="geometry" />
        </mxCell>
        <mxCell id="EULpzarY96xiYEv2TJPT-4" value="" style="edgeStyle=orthogonalEdgeStyle;html=1;endArrow=none;elbow=vertical;startArrow=open;startFill=0;strokeColor=#545B64;rounded=0;" edge="1" parent="EULpzarY96xiYEv2TJPT-1" source="EULpzarY96xiYEv2TJPT-3">
          <mxGeometry width="100" relative="1" as="geometry">
            <mxPoint x="249.5" y="262" as="sourcePoint" />
            <mxPoint x="187.5" y="290" as="targetPoint" />
          </mxGeometry>
        </mxCell>
        <mxCell id="EULpzarY96xiYEv2TJPT-5" value="Public subnet" style="points=[[0,0],[0.25,0],[0.5,0],[0.75,0],[1,0],[1,0.25],[1,0.5],[1,0.75],[1,1],[0.75,1],[0.5,1],[0.25,1],[0,1],[0,0.75],[0,0.5],[0,0.25]];outlineConnect=0;gradientColor=none;html=1;whiteSpace=wrap;fontSize=12;fontStyle=0;container=1;pointerEvents=0;collapsible=0;recursiveResize=0;shape=mxgraph.aws4.group;grIcon=mxgraph.aws4.group_security_group;grStroke=0;strokeColor=#248814;fillColor=#E9F3E6;verticalAlign=top;align=left;spacingLeft=30;fontColor=#248814;dashed=0;" vertex="1" parent="EULpzarY96xiYEv2TJPT-1">
          <mxGeometry x="69.5" y="602" width="240.5" height="210" as="geometry" />
        </mxCell>
        <mxCell id="EULpzarY96xiYEv2TJPT-6" value="" style="outlineConnect=0;dashed=0;verticalLabelPosition=bottom;verticalAlign=top;align=center;html=1;shape=mxgraph.aws3.internet_gateway;fillColor=#F58534;gradientColor=none;" vertex="1" parent="EULpzarY96xiYEv2TJPT-1">
          <mxGeometry x="310" y="-40" width="69" height="72" as="geometry" />
        </mxCell>
        <mxCell id="EULpzarY96xiYEv2TJPT-7" value="オハイオregion" style="points=[[0,0],[0.25,0],[0.5,0],[0.75,0],[1,0],[1,0.25],[1,0.5],[1,0.75],[1,1],[0.75,1],[0.5,1],[0.25,1],[0,1],[0,0.75],[0,0.5],[0,0.25]];outlineConnect=0;gradientColor=none;html=1;whiteSpace=wrap;fontSize=12;fontStyle=0;container=1;pointerEvents=0;collapsible=0;recursiveResize=0;shape=mxgraph.aws4.group;grIcon=mxgraph.aws4.group_region;strokeColor=#147EBA;fillColor=none;verticalAlign=top;align=left;spacingLeft=30;fontColor=#147EBA;dashed=1;shadow=1;" vertex="1" parent="1">
          <mxGeometry x="30" y="230" width="910" height="910" as="geometry" />
        </mxCell>
        <mxCell id="EULpzarY96xiYEv2TJPT-8" value="Private subnet" style="points=[[0,0],[0.25,0],[0.5,0],[0.75,0],[1,0],[1,0.25],[1,0.5],[1,0.75],[1,1],[0.75,1],[0.5,1],[0.25,1],[0,1],[0,0.75],[0,0.5],[0,0.25]];outlineConnect=0;gradientColor=none;html=1;whiteSpace=wrap;fontSize=12;fontStyle=0;container=1;pointerEvents=0;collapsible=0;recursiveResize=0;shape=mxgraph.aws4.group;grIcon=mxgraph.aws4.group_security_group;grStroke=0;strokeColor=#147EBA;fillColor=#E6F2F8;verticalAlign=top;align=left;spacingLeft=30;fontColor=#147EBA;dashed=0;" vertex="1" parent="EULpzarY96xiYEv2TJPT-7">
          <mxGeometry x="570" y="70" width="130" height="130" as="geometry" />
        </mxCell>
        <mxCell id="EULpzarY96xiYEv2TJPT-9" value="" style="outlineConnect=0;dashed=0;verticalLabelPosition=bottom;verticalAlign=top;align=center;html=1;shape=mxgraph.aws3.vpc_nat_gateway;fillColor=#F58534;gradientColor=none;" vertex="1" parent="EULpzarY96xiYEv2TJPT-8">
          <mxGeometry x="31" y="40" width="69" height="72" as="geometry" />
        </mxCell>
        <mxCell id="EULpzarY96xiYEv2TJPT-10" value="Public subnet" style="points=[[0,0],[0.25,0],[0.5,0],[0.75,0],[1,0],[1,0.25],[1,0.5],[1,0.75],[1,1],[0.75,1],[0.5,1],[0.25,1],[0,1],[0,0.75],[0,0.5],[0,0.25]];outlineConnect=0;gradientColor=none;html=1;whiteSpace=wrap;fontSize=12;fontStyle=0;container=1;pointerEvents=0;collapsible=0;recursiveResize=0;shape=mxgraph.aws4.group;grIcon=mxgraph.aws4.group_security_group;grStroke=0;strokeColor=#248814;fillColor=#E9F3E6;verticalAlign=top;align=left;spacingLeft=30;fontColor=#248814;dashed=0;" vertex="1" parent="EULpzarY96xiYEv2TJPT-7">
          <mxGeometry x="410" y="422" width="240.5" height="200" as="geometry" />
        </mxCell>
        <mxCell id="EULpzarY96xiYEv2TJPT-11" value="" style="outlineConnect=0;dashed=0;verticalLabelPosition=bottom;verticalAlign=top;align=center;html=1;shape=mxgraph.aws3.ec2;fillColor=#F58534;gradientColor=none;" vertex="1" parent="EULpzarY96xiYEv2TJPT-10">
          <mxGeometry x="90" y="53.5" width="76.5" height="93" as="geometry" />
        </mxCell>
        <mxCell id="EULpzarY96xiYEv2TJPT-12" value="App" style="text;html=1;resizable=0;autosize=1;align=center;verticalAlign=middle;points=[];fillColor=none;strokeColor=none;rounded=0;shadow=1;" vertex="1" parent="EULpzarY96xiYEv2TJPT-10">
          <mxGeometry x="130" y="148" width="40" height="20" as="geometry" />
        </mxCell>
        <mxCell id="EULpzarY96xiYEv2TJPT-14" value="Private subnet" style="points=[[0,0],[0.25,0],[0.5,0],[0.75,0],[1,0],[1,0.25],[1,0.5],[1,0.75],[1,1],[0.75,1],[0.5,1],[0.25,1],[0,1],[0,0.75],[0,0.5],[0,0.25]];outlineConnect=0;gradientColor=none;html=1;whiteSpace=wrap;fontSize=12;fontStyle=0;container=1;pointerEvents=0;collapsible=0;recursiveResize=0;shape=mxgraph.aws4.group;grIcon=mxgraph.aws4.group_security_group;grStroke=0;strokeColor=#147EBA;fillColor=#E6F2F8;verticalAlign=top;align=left;spacingLeft=30;fontColor=#147EBA;dashed=0;" vertex="1" parent="EULpzarY96xiYEv2TJPT-7">
          <mxGeometry x="420" y="226.5" width="240.5" height="150" as="geometry" />
        </mxCell>
        <mxCell id="EULpzarY96xiYEv2TJPT-15" value="Public subnet" style="points=[[0,0],[0.25,0],[0.5,0],[0.75,0],[1,0],[1,0.25],[1,0.5],[1,0.75],[1,1],[0.75,1],[0.5,1],[0.25,1],[0,1],[0,0.75],[0,0.5],[0,0.25]];outlineConnect=0;gradientColor=none;html=1;whiteSpace=wrap;fontSize=12;fontStyle=0;container=1;pointerEvents=0;collapsible=0;recursiveResize=0;shape=mxgraph.aws4.group;grIcon=mxgraph.aws4.group_security_group;grStroke=0;strokeColor=#248814;fillColor=#E9F3E6;verticalAlign=top;align=left;spacingLeft=30;fontColor=#248814;dashed=0;" vertex="1" parent="EULpzarY96xiYEv2TJPT-14">
          <mxGeometry x="-10" width="250" height="150" as="geometry" />
        </mxCell>
        <mxCell id="EULpzarY96xiYEv2TJPT-16" value="" style="edgeStyle=orthogonalEdgeStyle;html=1;endArrow=block;elbow=vertical;startArrow=none;endFill=1;strokeColor=#545B64;rounded=0;entryX=0.5;entryY=1;entryDx=0;entryDy=0;entryPerimeter=0;" edge="1" parent="EULpzarY96xiYEv2TJPT-15" target="EULpzarY96xiYEv2TJPT-9">
          <mxGeometry width="100" relative="1" as="geometry">
            <mxPoint x="175.5" y="53.5" as="sourcePoint" />
            <mxPoint x="275.5" y="53.5" as="targetPoint" />
          </mxGeometry>
        </mxCell>
        <mxCell id="EULpzarY96xiYEv2TJPT-17" value="" style="outlineConnect=0;dashed=0;verticalLabelPosition=bottom;verticalAlign=top;align=center;html=1;shape=mxgraph.aws3.ec2;fillColor=#F58534;gradientColor=none;" vertex="1" parent="EULpzarY96xiYEv2TJPT-14">
          <mxGeometry x="82" y="40" width="76.5" height="93" as="geometry" />
        </mxCell>
        <mxCell id="EULpzarY96xiYEv2TJPT-18" value="Web" style="text;html=1;resizable=0;autosize=1;align=center;verticalAlign=middle;points=[];fillColor=none;strokeColor=none;rounded=0;shadow=1;" vertex="1" parent="EULpzarY96xiYEv2TJPT-14">
          <mxGeometry x="150" y="115" width="40" height="20" as="geometry" />
        </mxCell>
        <mxCell id="EULpzarY96xiYEv2TJPT-125" value="" style="edgeStyle=orthogonalEdgeStyle;html=1;endArrow=openThin;elbow=vertical;startArrow=openThin;startFill=0;endFill=0;strokeColor=#545B64;rounded=0;entryX=0;entryY=0.75;entryDx=0;entryDy=0;exitX=0;exitY=0.5;exitDx=0;exitDy=0;exitPerimeter=0;" edge="1" parent="EULpzarY96xiYEv2TJPT-14" source="EULpzarY96xiYEv2TJPT-17" target="EULpzarY96xiYEv2TJPT-15">
          <mxGeometry width="100" relative="1" as="geometry">
            <mxPoint x="-156" y="94.9666666666667" as="sourcePoint" />
            <mxPoint x="-38.63000000000011" y="82.5" as="targetPoint" />
            <Array as="points">
              <mxPoint x="82" y="104" />
              <mxPoint x="-10" y="104" />
            </Array>
          </mxGeometry>
        </mxCell>
        <mxCell id="EULpzarY96xiYEv2TJPT-20" value="" style="edgeStyle=orthogonalEdgeStyle;html=1;endArrow=none;elbow=vertical;startArrow=open;startFill=0;strokeColor=#545B64;rounded=0;entryX=0.5;entryY=1;entryDx=0;entryDy=0;entryPerimeter=0;exitX=0.5;exitY=0;exitDx=0;exitDy=0;exitPerimeter=0;" edge="1" parent="EULpzarY96xiYEv2TJPT-7" source="EULpzarY96xiYEv2TJPT-11" target="EULpzarY96xiYEv2TJPT-17">
          <mxGeometry width="100" relative="1" as="geometry">
            <mxPoint x="228.29999999999995" y="502" as="sourcePoint" />
            <mxPoint x="488.25" y="315" as="targetPoint" />
          </mxGeometry>
        </mxCell>
        <mxCell id="EULpzarY96xiYEv2TJPT-21" value="" style="edgeStyle=orthogonalEdgeStyle;html=1;endArrow=openThin;elbow=vertical;startArrow=openThin;startFill=0;endFill=0;strokeColor=#545B64;rounded=0;entryX=1;entryY=0.5;entryDx=0;entryDy=0;entryPerimeter=0;" edge="1" parent="EULpzarY96xiYEv2TJPT-7" target="EULpzarY96xiYEv2TJPT-11">
          <mxGeometry width="100" relative="1" as="geometry">
            <mxPoint x="90" y="450" as="sourcePoint" />
            <mxPoint x="266.5" y="548.5" as="targetPoint" />
          </mxGeometry>
        </mxCell>
        <mxCell id="EULpzarY96xiYEv2TJPT-22" value="Public subnet" style="points=[[0,0],[0.25,0],[0.5,0],[0.75,0],[1,0],[1,0.25],[1,0.5],[1,0.75],[1,1],[0.75,1],[0.5,1],[0.25,1],[0,1],[0,0.75],[0,0.5],[0,0.25]];outlineConnect=0;gradientColor=none;html=1;whiteSpace=wrap;fontSize=12;fontStyle=0;container=1;pointerEvents=0;collapsible=0;recursiveResize=0;shape=mxgraph.aws4.group;grIcon=mxgraph.aws4.group_security_group;grStroke=0;strokeColor=#248814;fillColor=#E9F3E6;verticalAlign=top;align=left;spacingLeft=30;fontColor=#248814;dashed=0;" vertex="1" parent="EULpzarY96xiYEv2TJPT-7">
          <mxGeometry x="410" y="640" width="290" height="190" as="geometry" />
        </mxCell>
        <mxCell id="EULpzarY96xiYEv2TJPT-23" value="" style="outlineConnect=0;dashed=0;verticalLabelPosition=bottom;verticalAlign=top;align=center;html=1;shape=mxgraph.aws3.rds;fillColor=#2E73B8;gradientColor=none;" vertex="1" parent="EULpzarY96xiYEv2TJPT-22">
          <mxGeometry x="30" y="70" width="72" height="81" as="geometry" />
        </mxCell>
        <mxCell id="EULpzarY96xiYEv2TJPT-24" value="slave" style="text;html=1;align=center;verticalAlign=middle;resizable=0;points=[];autosize=1;strokeColor=none;fillColor=none;" vertex="1" parent="EULpzarY96xiYEv2TJPT-22">
          <mxGeometry x="46" y="160" width="40" height="20" as="geometry" />
        </mxCell>
        <mxCell id="EULpzarY96xiYEv2TJPT-25" value="RDSは自動バックアップが&lt;br&gt;撮られるためS3などはいらない" style="text;html=1;resizable=0;autosize=1;align=center;verticalAlign=middle;points=[];fillColor=none;strokeColor=none;rounded=0;shadow=1;" vertex="1" parent="EULpzarY96xiYEv2TJPT-22">
          <mxGeometry x="100" y="110" width="190" height="30" as="geometry" />
        </mxCell>
        <mxCell id="EULpzarY96xiYEv2TJPT-26" value="" style="edgeStyle=orthogonalEdgeStyle;html=1;endArrow=openThin;elbow=vertical;startArrow=openThin;startFill=0;endFill=0;strokeColor=#545B64;rounded=0;exitX=0.5;exitY=1;exitDx=0;exitDy=0;exitPerimeter=0;entryX=0.5;entryY=0;entryDx=0;entryDy=0;entryPerimeter=0;" edge="1" parent="EULpzarY96xiYEv2TJPT-7" source="EULpzarY96xiYEv2TJPT-11" target="EULpzarY96xiYEv2TJPT-23">
          <mxGeometry width="100" relative="1" as="geometry">
            <mxPoint x="228.29999999999995" y="595" as="sourcePoint" />
            <mxPoint x="206" y="732" as="targetPoint" />
          </mxGeometry>
        </mxCell>
        <mxCell id="EULpzarY96xiYEv2TJPT-27" value="" style="outlineConnect=0;dashed=0;verticalLabelPosition=bottom;verticalAlign=top;align=center;html=1;shape=mxgraph.aws3.rds;fillColor=#2E73B8;gradientColor=none;" vertex="1" parent="EULpzarY96xiYEv2TJPT-7">
          <mxGeometry x="180" y="694.5" width="72" height="81" as="geometry" />
        </mxCell>
        <mxCell id="EULpzarY96xiYEv2TJPT-28" value="" style="outlineConnect=0;dashed=0;verticalLabelPosition=bottom;verticalAlign=top;align=center;html=1;shape=mxgraph.aws3.classic_load_balancer;fillColor=#F58534;gradientColor=none;" vertex="1" parent="EULpzarY96xiYEv2TJPT-7">
          <mxGeometry x="315.75" y="70" width="114.25" height="102" as="geometry" />
        </mxCell>
        <mxCell id="EULpzarY96xiYEv2TJPT-29" value="" style="outlineConnect=0;dashed=0;verticalLabelPosition=bottom;verticalAlign=top;align=center;html=1;shape=mxgraph.aws3.vpn_gateway;fillColor=#F58534;gradientColor=none;" vertex="1" parent="EULpzarY96xiYEv2TJPT-7">
          <mxGeometry x="780" y="419" width="69" height="72" as="geometry" />
        </mxCell>
        <mxCell id="EULpzarY96xiYEv2TJPT-30" value="master" style="text;html=1;align=center;verticalAlign=middle;resizable=0;points=[];autosize=1;strokeColor=none;fillColor=none;" vertex="1" parent="EULpzarY96xiYEv2TJPT-7">
          <mxGeometry x="191" y="800" width="50" height="20" as="geometry" />
        </mxCell>
        <mxCell id="EULpzarY96xiYEv2TJPT-31" value="" style="edgeStyle=orthogonalEdgeStyle;html=1;endArrow=block;elbow=vertical;startArrow=none;endFill=1;strokeColor=#545B64;rounded=0;entryX=0;entryY=0.5;entryDx=0;entryDy=0;entryPerimeter=0;" edge="1" parent="EULpzarY96xiYEv2TJPT-7" target="EULpzarY96xiYEv2TJPT-23">
          <mxGeometry width="100" relative="1" as="geometry">
            <mxPoint x="252" y="734.5" as="sourcePoint" />
            <mxPoint x="352" y="734.5" as="targetPoint" />
          </mxGeometry>
        </mxCell>
        <mxCell id="EULpzarY96xiYEv2TJPT-32" value="vpn" style="text;html=1;align=center;verticalAlign=middle;resizable=0;points=[];autosize=1;strokeColor=none;fillColor=none;" vertex="1" parent="EULpzarY96xiYEv2TJPT-7">
          <mxGeometry x="797" y="500" width="30" height="20" as="geometry" />
        </mxCell>
        <mxCell id="EULpzarY96xiYEv2TJPT-33" value="App" style="text;html=1;resizable=0;autosize=1;align=center;verticalAlign=middle;points=[];fillColor=none;strokeColor=none;rounded=0;shadow=1;" vertex="1" parent="EULpzarY96xiYEv2TJPT-7">
          <mxGeometry x="241" y="570" width="40" height="20" as="geometry" />
        </mxCell>
        <mxCell id="EULpzarY96xiYEv2TJPT-34" value="Private subnet" style="points=[[0,0],[0.25,0],[0.5,0],[0.75,0],[1,0],[1,0.25],[1,0.5],[1,0.75],[1,1],[0.75,1],[0.5,1],[0.25,1],[0,1],[0,0.75],[0,0.5],[0,0.25]];outlineConnect=0;gradientColor=none;html=1;whiteSpace=wrap;fontSize=12;fontStyle=0;container=1;pointerEvents=0;collapsible=0;recursiveResize=0;shape=mxgraph.aws4.group;grIcon=mxgraph.aws4.group_security_group;grStroke=0;strokeColor=#147EBA;fillColor=#E6F2F8;verticalAlign=top;align=left;spacingLeft=30;fontColor=#147EBA;dashed=0;" vertex="1" parent="EULpzarY96xiYEv2TJPT-7">
          <mxGeometry x="100" y="233" width="240.5" height="159" as="geometry" />
        </mxCell>
        <mxCell id="EULpzarY96xiYEv2TJPT-35" value="Public subnet" style="points=[[0,0],[0.25,0],[0.5,0],[0.75,0],[1,0],[1,0.25],[1,0.5],[1,0.75],[1,1],[0.75,1],[0.5,1],[0.25,1],[0,1],[0,0.75],[0,0.5],[0,0.25]];outlineConnect=0;gradientColor=none;html=1;whiteSpace=wrap;fontSize=12;fontStyle=0;container=1;pointerEvents=0;collapsible=0;recursiveResize=0;shape=mxgraph.aws4.group;grIcon=mxgraph.aws4.group_security_group;grStroke=0;strokeColor=#248814;fillColor=#E9F3E6;verticalAlign=top;align=left;spacingLeft=30;fontColor=#248814;dashed=0;" vertex="1" parent="EULpzarY96xiYEv2TJPT-34">
          <mxGeometry width="240" height="159" as="geometry" />
        </mxCell>
        <mxCell id="EULpzarY96xiYEv2TJPT-36" value="" style="outlineConnect=0;dashed=0;verticalLabelPosition=bottom;verticalAlign=top;align=center;html=1;shape=mxgraph.aws3.ec2;fillColor=#F58534;gradientColor=none;" vertex="1" parent="EULpzarY96xiYEv2TJPT-34">
          <mxGeometry x="77.5" y="32" width="76.5" height="93" as="geometry" />
        </mxCell>
        <mxCell id="EULpzarY96xiYEv2TJPT-37" value="Web" style="text;html=1;resizable=0;autosize=1;align=center;verticalAlign=middle;points=[];fillColor=none;strokeColor=none;rounded=0;shadow=1;" vertex="1" parent="EULpzarY96xiYEv2TJPT-34">
          <mxGeometry x="154" y="88" width="40" height="20" as="geometry" />
        </mxCell>
        <mxCell id="EULpzarY96xiYEv2TJPT-38" value="" style="edgeStyle=orthogonalEdgeStyle;html=1;endArrow=block;elbow=vertical;startArrow=none;endFill=1;strokeColor=#545B64;rounded=0;" edge="1" parent="EULpzarY96xiYEv2TJPT-7" source="EULpzarY96xiYEv2TJPT-28" target="EULpzarY96xiYEv2TJPT-36">
          <mxGeometry width="100" relative="1" as="geometry">
            <mxPoint x="280" y="292" as="sourcePoint" />
            <mxPoint x="380" y="292" as="targetPoint" />
          </mxGeometry>
        </mxCell>
        <mxCell id="EULpzarY96xiYEv2TJPT-39" value="" style="edgeStyle=orthogonalEdgeStyle;html=1;endArrow=block;elbow=vertical;startArrow=none;endFill=1;strokeColor=#545B64;rounded=0;exitX=1;exitY=0.5;exitDx=0;exitDy=0;exitPerimeter=0;" edge="1" parent="EULpzarY96xiYEv2TJPT-7" source="EULpzarY96xiYEv2TJPT-28">
          <mxGeometry width="100" relative="1" as="geometry">
            <mxPoint x="631.95" y="120" as="sourcePoint" />
            <mxPoint x="530" y="261" as="targetPoint" />
          </mxGeometry>
        </mxCell>
        <mxCell id="EULpzarY96xiYEv2TJPT-40" value="Private subnet" style="points=[[0,0],[0.25,0],[0.5,0],[0.75,0],[1,0],[1,0.25],[1,0.5],[1,0.75],[1,1],[0.75,1],[0.5,1],[0.25,1],[0,1],[0,0.75],[0,0.5],[0,0.25]];outlineConnect=0;gradientColor=none;html=1;whiteSpace=wrap;fontSize=12;fontStyle=0;container=1;pointerEvents=0;collapsible=0;recursiveResize=0;shape=mxgraph.aws4.group;grIcon=mxgraph.aws4.group_security_group;grStroke=0;strokeColor=#147EBA;fillColor=#E6F2F8;verticalAlign=top;align=left;spacingLeft=30;fontColor=#147EBA;dashed=0;" vertex="1" parent="EULpzarY96xiYEv2TJPT-7">
          <mxGeometry x="70" y="70" width="130" height="130" as="geometry" />
        </mxCell>
        <mxCell id="EULpzarY96xiYEv2TJPT-41" value="" style="outlineConnect=0;dashed=0;verticalLabelPosition=bottom;verticalAlign=top;align=center;html=1;shape=mxgraph.aws3.vpc_nat_gateway;fillColor=#F58534;gradientColor=none;" vertex="1" parent="EULpzarY96xiYEv2TJPT-40">
          <mxGeometry x="39" y="30" width="69" height="72" as="geometry" />
        </mxCell>
        <mxCell id="EULpzarY96xiYEv2TJPT-42" value="" style="edgeStyle=orthogonalEdgeStyle;html=1;endArrow=block;elbow=vertical;startArrow=none;endFill=1;strokeColor=#545B64;rounded=0;entryX=0.5;entryY=1;entryDx=0;entryDy=0;entryPerimeter=0;" edge="1" parent="EULpzarY96xiYEv2TJPT-7" target="EULpzarY96xiYEv2TJPT-41">
          <mxGeometry width="100" relative="1" as="geometry">
            <mxPoint x="170" y="298" as="sourcePoint" />
            <mxPoint x="220" y="200" as="targetPoint" />
            <Array as="points">
              <mxPoint x="140" y="298" />
              <mxPoint x="140" y="200" />
              <mxPoint x="144" y="200" />
            </Array>
          </mxGeometry>
        </mxCell>
        <mxCell id="EULpzarY96xiYEv2TJPT-43" value="" style="edgeStyle=orthogonalEdgeStyle;html=1;endArrow=none;elbow=vertical;startArrow=open;startFill=0;strokeColor=#545B64;rounded=0;" edge="1" parent="EULpzarY96xiYEv2TJPT-7" target="EULpzarY96xiYEv2TJPT-9">
          <mxGeometry width="100" relative="1" as="geometry">
            <mxPoint x="400" y="50" as="sourcePoint" />
            <mxPoint x="500" y="50" as="targetPoint" />
          </mxGeometry>
        </mxCell>
        <mxCell id="EULpzarY96xiYEv2TJPT-44" value="" style="outlineConnect=0;dashed=0;verticalLabelPosition=bottom;verticalAlign=top;align=center;html=1;shape=mxgraph.aws3.auto_scaling;fillColor=#F58534;gradientColor=none;" vertex="1" parent="EULpzarY96xiYEv2TJPT-7">
          <mxGeometry x="340.5" y="172" width="66.87" height="48" as="geometry" />
        </mxCell>
        <mxCell id="EULpzarY96xiYEv2TJPT-109" value="s3&lt;br&gt;(regionを跨いで見る機能がある)&lt;br&gt;クロスリージョンレプリケーション？&lt;br&gt;&lt;br&gt;EFSの役割も行う&lt;br&gt;&lt;br&gt;同じバケット内でパスを分ける" style="text;html=1;resizable=0;autosize=1;align=center;verticalAlign=middle;points=[];fillColor=none;strokeColor=none;rounded=0;" vertex="1" parent="EULpzarY96xiYEv2TJPT-7">
          <mxGeometry x="-120" y="490" width="220" height="100" as="geometry" />
        </mxCell>
        <mxCell id="EULpzarY96xiYEv2TJPT-110" value="" style="outlineConnect=0;dashed=0;verticalLabelPosition=bottom;verticalAlign=top;align=center;html=1;shape=mxgraph.aws3.s3;fillColor=#E05243;gradientColor=none;" vertex="1" parent="EULpzarY96xiYEv2TJPT-7">
          <mxGeometry x="40" y="429.5" width="40" height="51" as="geometry" />
        </mxCell>
        <mxCell id="EULpzarY96xiYEv2TJPT-115" value="Cloudformation&lt;br&gt;で構築" style="text;html=1;resizable=0;autosize=1;align=center;verticalAlign=middle;points=[];fillColor=none;strokeColor=none;rounded=0;" vertex="1" parent="EULpzarY96xiYEv2TJPT-7">
          <mxGeometry x="790" y="65" width="100" height="30" as="geometry" />
        </mxCell>
        <mxCell id="EULpzarY96xiYEv2TJPT-118" value="" style="outlineConnect=0;dashed=0;verticalLabelPosition=bottom;verticalAlign=top;align=center;html=1;shape=mxgraph.aws3.dynamo_db;fillColor=#2E73B8;gradientColor=none;" vertex="1" parent="EULpzarY96xiYEv2TJPT-7">
          <mxGeometry x="335.37" y="299" width="72" height="81" as="geometry" />
        </mxCell>
        <mxCell id="EULpzarY96xiYEv2TJPT-120" value="" style="edgeStyle=orthogonalEdgeStyle;html=1;endArrow=openThin;elbow=vertical;startArrow=openThin;startFill=0;endFill=0;strokeColor=#545B64;rounded=0;entryX=0.5;entryY=0;entryDx=0;entryDy=0;entryPerimeter=0;" edge="1" parent="EULpzarY96xiYEv2TJPT-7" source="EULpzarY96xiYEv2TJPT-36" target="EULpzarY96xiYEv2TJPT-118">
          <mxGeometry width="100" relative="1" as="geometry">
            <mxPoint x="228.20000000000027" y="585" as="sourcePoint" />
            <mxPoint x="226.06666666666706" y="704.5" as="targetPoint" />
            <Array as="points">
              <mxPoint x="295" y="311" />
              <mxPoint x="295" y="299" />
            </Array>
          </mxGeometry>
        </mxCell>
        <mxCell id="EULpzarY96xiYEv2TJPT-45" value="" style="sketch=0;outlineConnect=0;fontColor=#232F3E;gradientColor=none;fillColor=#232F3D;strokeColor=none;dashed=0;verticalLabelPosition=bottom;verticalAlign=top;align=center;html=1;fontSize=12;fontStyle=0;aspect=fixed;pointerEvents=1;shape=mxgraph.aws4.mobile_client;" vertex="1" parent="1">
          <mxGeometry x="-20" y="-220" width="41" height="78" as="geometry" />
        </mxCell>
        <mxCell id="EULpzarY96xiYEv2TJPT-46" value="" style="edgeStyle=orthogonalEdgeStyle;html=1;endArrow=block;elbow=vertical;startArrow=block;startFill=1;endFill=1;strokeColor=#545B64;rounded=0;entryX=0.5;entryY=0;entryDx=0;entryDy=0;entryPerimeter=0;" edge="1" parent="1">
          <mxGeometry width="100" relative="1" as="geometry">
            <mxPoint y="-142" as="sourcePoint" />
            <mxPoint y="-66" as="targetPoint" />
          </mxGeometry>
        </mxCell>
        <mxCell id="EULpzarY96xiYEv2TJPT-47" value="" style="edgeStyle=orthogonalEdgeStyle;html=1;endArrow=block;elbow=vertical;startArrow=block;startFill=1;endFill=1;strokeColor=#545B64;rounded=0;exitX=1;exitY=0.7;exitDx=0;exitDy=0;exitPerimeter=0;entryX=0.5;entryY=0;entryDx=0;entryDy=0;entryPerimeter=0;" edge="1" parent="1" source="EULpzarY96xiYEv2TJPT-55" target="EULpzarY96xiYEv2TJPT-28">
          <mxGeometry width="100" relative="1" as="geometry">
            <mxPoint x="390.5" y="570" as="sourcePoint" />
            <mxPoint x="490.5" y="570" as="targetPoint" />
            <Array as="points">
              <mxPoint x="60" y="-16" />
              <mxPoint x="60" y="-10" />
              <mxPoint x="400" y="-10" />
              <mxPoint x="400" y="150" />
              <mxPoint x="403" y="150" />
            </Array>
          </mxGeometry>
        </mxCell>
        <mxCell id="EULpzarY96xiYEv2TJPT-48" value="" style="edgeStyle=orthogonalEdgeStyle;html=1;endArrow=openThin;elbow=vertical;startArrow=openThin;startFill=0;endFill=0;strokeColor=#545B64;rounded=0;exitX=1;exitY=0.5;exitDx=0;exitDy=0;exitPerimeter=0;entryX=1;entryY=0.5;entryDx=0;entryDy=0;entryPerimeter=0;" edge="1" parent="1" source="EULpzarY96xiYEv2TJPT-110" target="EULpzarY96xiYEv2TJPT-3">
          <mxGeometry width="100" relative="1" as="geometry">
            <mxPoint x="709.1800000000003" y="666.5" as="sourcePoint" />
            <mxPoint x="236" y="952" as="targetPoint" />
          </mxGeometry>
        </mxCell>
        <mxCell id="EULpzarY96xiYEv2TJPT-49" value="" style="edgeStyle=orthogonalEdgeStyle;html=1;endArrow=openThin;elbow=vertical;startArrow=openThin;startFill=0;endFill=0;strokeColor=#545B64;rounded=0;" edge="1" parent="1" source="EULpzarY96xiYEv2TJPT-3" target="EULpzarY96xiYEv2TJPT-27">
          <mxGeometry width="100" relative="1" as="geometry">
            <mxPoint x="310" y="832" as="sourcePoint" />
            <mxPoint x="410" y="832" as="targetPoint" />
          </mxGeometry>
        </mxCell>
        <mxCell id="EULpzarY96xiYEv2TJPT-50" value="" style="edgeStyle=orthogonalEdgeStyle;html=1;endArrow=block;elbow=vertical;startArrow=block;startFill=1;endFill=1;strokeColor=#545B64;rounded=0;shape=arrow;" edge="1" parent="1">
          <mxGeometry width="100" relative="1" as="geometry">
            <mxPoint x="1090" y="735" as="sourcePoint" />
            <mxPoint x="870" y="735" as="targetPoint" />
            <Array as="points">
              <mxPoint x="1090" y="710" />
              <mxPoint x="875" y="710" />
              <mxPoint x="875" y="730" />
            </Array>
          </mxGeometry>
        </mxCell>
        <mxCell id="EULpzarY96xiYEv2TJPT-51" value="" style="edgeStyle=orthogonalEdgeStyle;html=1;endArrow=block;elbow=vertical;startArrow=none;endFill=1;strokeColor=#545B64;rounded=0;shape=arrow;" edge="1" parent="1">
          <mxGeometry width="100" relative="1" as="geometry">
            <mxPoint x="890" y="670" as="sourcePoint" />
            <mxPoint x="1100" y="670" as="targetPoint" />
          </mxGeometry>
        </mxCell>
        <mxCell id="EULpzarY96xiYEv2TJPT-52" value="" style="outlineConnect=0;dashed=0;verticalLabelPosition=bottom;verticalAlign=top;align=center;html=1;shape=mxgraph.aws3.customer_gateway;fillColor=#F58534;gradientColor=none;" vertex="1" parent="1">
          <mxGeometry x="1140" y="660" width="69" height="72" as="geometry" />
        </mxCell>
        <mxCell id="EULpzarY96xiYEv2TJPT-53" value="" style="sketch=0;pointerEvents=1;shadow=0;dashed=0;html=1;strokeColor=none;fillColor=#434445;aspect=fixed;labelPosition=center;verticalLabelPosition=bottom;verticalAlign=top;align=center;outlineConnect=0;shape=mxgraph.vvd.datacenter;" vertex="1" parent="1">
          <mxGeometry x="1260" y="610" width="189.19" height="140" as="geometry" />
        </mxCell>
        <mxCell id="EULpzarY96xiYEv2TJPT-54" value="customer&lt;br&gt;gateway" style="text;html=1;align=center;verticalAlign=middle;resizable=0;points=[];autosize=1;strokeColor=none;fillColor=none;" vertex="1" parent="1">
          <mxGeometry x="1144.5" y="740" width="60" height="30" as="geometry" />
        </mxCell>
        <mxCell id="EULpzarY96xiYEv2TJPT-55" value="" style="outlineConnect=0;dashed=0;verticalLabelPosition=bottom;verticalAlign=top;align=center;html=1;shape=mxgraph.aws3.internet_2;fillColor=#D2D3D3;gradientColor=none;" vertex="1" parent="1">
          <mxGeometry x="-30" y="-54" width="79.5" height="54" as="geometry" />
        </mxCell>
        <mxCell id="EULpzarY96xiYEv2TJPT-56" value="" style="edgeStyle=orthogonalEdgeStyle;html=1;endArrow=block;elbow=vertical;startArrow=none;endFill=1;strokeColor=#545B64;rounded=0;entryX=0.145;entryY=0.855;entryDx=0;entryDy=0;entryPerimeter=0;exitX=0.855;exitY=0.145;exitDx=0;exitDy=0;exitPerimeter=0;" edge="1" parent="1" source="EULpzarY96xiYEv2TJPT-41" target="EULpzarY96xiYEv2TJPT-6">
          <mxGeometry width="100" relative="1" as="geometry">
            <mxPoint x="196" y="330" as="sourcePoint" />
            <mxPoint x="296" y="330" as="targetPoint" />
            <Array as="points">
              <mxPoint x="180" y="340" />
              <mxPoint x="180" y="282" />
            </Array>
          </mxGeometry>
        </mxCell>
        <mxCell id="EULpzarY96xiYEv2TJPT-57" value="VPC" style="points=[[0,0],[0.25,0],[0.5,0],[0.75,0],[1,0],[1,0.25],[1,0.5],[1,0.75],[1,1],[0.75,1],[0.5,1],[0.25,1],[0,1],[0,0.75],[0,0.5],[0,0.25]];outlineConnect=0;gradientColor=none;html=1;whiteSpace=wrap;fontSize=12;fontStyle=0;container=1;pointerEvents=0;collapsible=0;recursiveResize=0;shape=mxgraph.aws4.group;grIcon=mxgraph.aws4.group_vpc;strokeColor=#248814;fillColor=none;verticalAlign=top;align=left;spacingLeft=30;fontColor=#AAB7B8;dashed=0;" vertex="1" parent="1">
          <mxGeometry x="-792.5" y="260" width="689.5" height="840" as="geometry" />
        </mxCell>
        <mxCell id="EULpzarY96xiYEv2TJPT-58" value="Public subnet" style="points=[[0,0],[0.25,0],[0.5,0],[0.75,0],[1,0],[1,0.25],[1,0.5],[1,0.75],[1,1],[0.75,1],[0.5,1],[0.25,1],[0,1],[0,0.75],[0,0.5],[0,0.25]];outlineConnect=0;gradientColor=none;html=1;whiteSpace=wrap;fontSize=12;fontStyle=0;container=1;pointerEvents=0;collapsible=0;recursiveResize=0;shape=mxgraph.aws4.group;grIcon=mxgraph.aws4.group_security_group;grStroke=0;strokeColor=#248814;fillColor=#E9F3E6;verticalAlign=top;align=left;spacingLeft=30;fontColor=#248814;dashed=0;" vertex="1" parent="EULpzarY96xiYEv2TJPT-57">
          <mxGeometry x="69.5" y="382" width="240.5" height="208" as="geometry" />
        </mxCell>
        <mxCell id="EULpzarY96xiYEv2TJPT-59" value="" style="outlineConnect=0;dashed=0;verticalLabelPosition=bottom;verticalAlign=top;align=center;html=1;shape=mxgraph.aws3.ec2;fillColor=#F58534;gradientColor=none;" vertex="1" parent="EULpzarY96xiYEv2TJPT-58">
          <mxGeometry x="80" y="70" width="76.5" height="93" as="geometry" />
        </mxCell>
        <mxCell id="EULpzarY96xiYEv2TJPT-60" value="" style="edgeStyle=orthogonalEdgeStyle;html=1;endArrow=none;elbow=vertical;startArrow=open;startFill=0;strokeColor=#545B64;rounded=0;" edge="1" parent="EULpzarY96xiYEv2TJPT-57" source="EULpzarY96xiYEv2TJPT-59">
          <mxGeometry width="100" relative="1" as="geometry">
            <mxPoint x="249.5" y="262" as="sourcePoint" />
            <mxPoint x="187.5" y="290" as="targetPoint" />
          </mxGeometry>
        </mxCell>
        <mxCell id="EULpzarY96xiYEv2TJPT-61" value="Public subnet" style="points=[[0,0],[0.25,0],[0.5,0],[0.75,0],[1,0],[1,0.25],[1,0.5],[1,0.75],[1,1],[0.75,1],[0.5,1],[0.25,1],[0,1],[0,0.75],[0,0.5],[0,0.25]];outlineConnect=0;gradientColor=none;html=1;whiteSpace=wrap;fontSize=12;fontStyle=0;container=1;pointerEvents=0;collapsible=0;recursiveResize=0;shape=mxgraph.aws4.group;grIcon=mxgraph.aws4.group_security_group;grStroke=0;strokeColor=#248814;fillColor=#E9F3E6;verticalAlign=top;align=left;spacingLeft=30;fontColor=#248814;dashed=0;" vertex="1" parent="EULpzarY96xiYEv2TJPT-57">
          <mxGeometry x="69.5" y="602" width="240.5" height="210" as="geometry" />
        </mxCell>
        <mxCell id="EULpzarY96xiYEv2TJPT-63" value="TokyoRegion" style="points=[[0,0],[0.25,0],[0.5,0],[0.75,0],[1,0],[1,0.25],[1,0.5],[1,0.75],[1,1],[0.75,1],[0.5,1],[0.25,1],[0,1],[0,0.75],[0,0.5],[0,0.25]];outlineConnect=0;gradientColor=none;html=1;whiteSpace=wrap;fontSize=12;fontStyle=0;container=1;pointerEvents=0;collapsible=0;recursiveResize=0;shape=mxgraph.aws4.group;grIcon=mxgraph.aws4.group_region;strokeColor=#147EBA;fillColor=none;verticalAlign=top;align=left;spacingLeft=30;fontColor=#147EBA;dashed=1;shadow=1;" vertex="1" parent="1">
          <mxGeometry x="-823" y="230" width="823.5" height="910" as="geometry" />
        </mxCell>
        <mxCell id="EULpzarY96xiYEv2TJPT-64" value="Private subnet" style="points=[[0,0],[0.25,0],[0.5,0],[0.75,0],[1,0],[1,0.25],[1,0.5],[1,0.75],[1,1],[0.75,1],[0.5,1],[0.25,1],[0,1],[0,0.75],[0,0.5],[0,0.25]];outlineConnect=0;gradientColor=none;html=1;whiteSpace=wrap;fontSize=12;fontStyle=0;container=1;pointerEvents=0;collapsible=0;recursiveResize=0;shape=mxgraph.aws4.group;grIcon=mxgraph.aws4.group_security_group;grStroke=0;strokeColor=#147EBA;fillColor=#E6F2F8;verticalAlign=top;align=left;spacingLeft=30;fontColor=#147EBA;dashed=0;" vertex="1" parent="EULpzarY96xiYEv2TJPT-63">
          <mxGeometry x="570" y="70" width="130" height="130" as="geometry" />
        </mxCell>
        <mxCell id="EULpzarY96xiYEv2TJPT-65" value="" style="outlineConnect=0;dashed=0;verticalLabelPosition=bottom;verticalAlign=top;align=center;html=1;shape=mxgraph.aws3.vpc_nat_gateway;fillColor=#F58534;gradientColor=none;" vertex="1" parent="EULpzarY96xiYEv2TJPT-64">
          <mxGeometry x="31" y="40" width="69" height="72" as="geometry" />
        </mxCell>
        <mxCell id="EULpzarY96xiYEv2TJPT-66" value="Public subnet" style="points=[[0,0],[0.25,0],[0.5,0],[0.75,0],[1,0],[1,0.25],[1,0.5],[1,0.75],[1,1],[0.75,1],[0.5,1],[0.25,1],[0,1],[0,0.75],[0,0.5],[0,0.25]];outlineConnect=0;gradientColor=none;html=1;whiteSpace=wrap;fontSize=12;fontStyle=0;container=1;pointerEvents=0;collapsible=0;recursiveResize=0;shape=mxgraph.aws4.group;grIcon=mxgraph.aws4.group_security_group;grStroke=0;strokeColor=#248814;fillColor=#E9F3E6;verticalAlign=top;align=left;spacingLeft=30;fontColor=#248814;dashed=0;" vertex="1" parent="EULpzarY96xiYEv2TJPT-63">
          <mxGeometry x="410" y="422" width="240.5" height="200" as="geometry" />
        </mxCell>
        <mxCell id="EULpzarY96xiYEv2TJPT-67" value="" style="outlineConnect=0;dashed=0;verticalLabelPosition=bottom;verticalAlign=top;align=center;html=1;shape=mxgraph.aws3.ec2;fillColor=#F58534;gradientColor=none;" vertex="1" parent="EULpzarY96xiYEv2TJPT-66">
          <mxGeometry x="90" y="53.5" width="76.5" height="93" as="geometry" />
        </mxCell>
        <mxCell id="EULpzarY96xiYEv2TJPT-68" value="App" style="text;html=1;resizable=0;autosize=1;align=center;verticalAlign=middle;points=[];fillColor=none;strokeColor=none;rounded=0;shadow=1;" vertex="1" parent="EULpzarY96xiYEv2TJPT-66">
          <mxGeometry x="130" y="148" width="40" height="20" as="geometry" />
        </mxCell>
        <mxCell id="EULpzarY96xiYEv2TJPT-70" value="Private subnet" style="points=[[0,0],[0.25,0],[0.5,0],[0.75,0],[1,0],[1,0.25],[1,0.5],[1,0.75],[1,1],[0.75,1],[0.5,1],[0.25,1],[0,1],[0,0.75],[0,0.5],[0,0.25]];outlineConnect=0;gradientColor=none;html=1;whiteSpace=wrap;fontSize=12;fontStyle=0;container=1;pointerEvents=0;collapsible=0;recursiveResize=0;shape=mxgraph.aws4.group;grIcon=mxgraph.aws4.group_security_group;grStroke=0;strokeColor=#147EBA;fillColor=#E6F2F8;verticalAlign=top;align=left;spacingLeft=30;fontColor=#147EBA;dashed=0;" vertex="1" parent="EULpzarY96xiYEv2TJPT-63">
          <mxGeometry x="420" y="226.5" width="240.5" height="150" as="geometry" />
        </mxCell>
        <mxCell id="EULpzarY96xiYEv2TJPT-71" value="Public subnet" style="points=[[0,0],[0.25,0],[0.5,0],[0.75,0],[1,0],[1,0.25],[1,0.5],[1,0.75],[1,1],[0.75,1],[0.5,1],[0.25,1],[0,1],[0,0.75],[0,0.5],[0,0.25]];outlineConnect=0;gradientColor=none;html=1;whiteSpace=wrap;fontSize=12;fontStyle=0;container=1;pointerEvents=0;collapsible=0;recursiveResize=0;shape=mxgraph.aws4.group;grIcon=mxgraph.aws4.group_security_group;grStroke=0;strokeColor=#248814;fillColor=#E9F3E6;verticalAlign=top;align=left;spacingLeft=30;fontColor=#248814;dashed=0;" vertex="1" parent="EULpzarY96xiYEv2TJPT-70">
          <mxGeometry x="-10" width="250" height="150" as="geometry" />
        </mxCell>
        <mxCell id="EULpzarY96xiYEv2TJPT-72" value="" style="edgeStyle=orthogonalEdgeStyle;html=1;endArrow=block;elbow=vertical;startArrow=none;endFill=1;strokeColor=#545B64;rounded=0;entryX=0.5;entryY=1;entryDx=0;entryDy=0;entryPerimeter=0;" edge="1" parent="EULpzarY96xiYEv2TJPT-71" target="EULpzarY96xiYEv2TJPT-65">
          <mxGeometry width="100" relative="1" as="geometry">
            <mxPoint x="175.5" y="53.5" as="sourcePoint" />
            <mxPoint x="275.5" y="53.5" as="targetPoint" />
          </mxGeometry>
        </mxCell>
        <mxCell id="EULpzarY96xiYEv2TJPT-73" value="" style="outlineConnect=0;dashed=0;verticalLabelPosition=bottom;verticalAlign=top;align=center;html=1;shape=mxgraph.aws3.ec2;fillColor=#F58534;gradientColor=none;" vertex="1" parent="EULpzarY96xiYEv2TJPT-70">
          <mxGeometry x="82" y="40" width="76.5" height="93" as="geometry" />
        </mxCell>
        <mxCell id="EULpzarY96xiYEv2TJPT-74" value="Web" style="text;html=1;resizable=0;autosize=1;align=center;verticalAlign=middle;points=[];fillColor=none;strokeColor=none;rounded=0;shadow=1;" vertex="1" parent="EULpzarY96xiYEv2TJPT-70">
          <mxGeometry x="150" y="115" width="40" height="20" as="geometry" />
        </mxCell>
        <mxCell id="EULpzarY96xiYEv2TJPT-76" value="" style="edgeStyle=orthogonalEdgeStyle;html=1;endArrow=none;elbow=vertical;startArrow=open;startFill=0;strokeColor=#545B64;rounded=0;entryX=0.5;entryY=1;entryDx=0;entryDy=0;entryPerimeter=0;exitX=0.5;exitY=0;exitDx=0;exitDy=0;exitPerimeter=0;" edge="1" parent="EULpzarY96xiYEv2TJPT-63" source="EULpzarY96xiYEv2TJPT-67" target="EULpzarY96xiYEv2TJPT-73">
          <mxGeometry width="100" relative="1" as="geometry">
            <mxPoint x="228.29999999999995" y="502" as="sourcePoint" />
            <mxPoint x="488.25" y="315" as="targetPoint" />
          </mxGeometry>
        </mxCell>
        <mxCell id="EULpzarY96xiYEv2TJPT-77" value="" style="edgeStyle=orthogonalEdgeStyle;html=1;endArrow=openThin;elbow=vertical;startArrow=openThin;startFill=0;endFill=0;strokeColor=#545B64;rounded=0;entryX=1;entryY=0.5;entryDx=0;entryDy=0;entryPerimeter=0;" edge="1" parent="EULpzarY96xiYEv2TJPT-63" target="EULpzarY96xiYEv2TJPT-67">
          <mxGeometry width="100" relative="1" as="geometry">
            <mxPoint x="763" y="460" as="sourcePoint" />
            <mxPoint x="266.5" y="548.5" as="targetPoint" />
          </mxGeometry>
        </mxCell>
        <mxCell id="EULpzarY96xiYEv2TJPT-78" value="Public subnet" style="points=[[0,0],[0.25,0],[0.5,0],[0.75,0],[1,0],[1,0.25],[1,0.5],[1,0.75],[1,1],[0.75,1],[0.5,1],[0.25,1],[0,1],[0,0.75],[0,0.5],[0,0.25]];outlineConnect=0;gradientColor=none;html=1;whiteSpace=wrap;fontSize=12;fontStyle=0;container=1;pointerEvents=0;collapsible=0;recursiveResize=0;shape=mxgraph.aws4.group;grIcon=mxgraph.aws4.group_security_group;grStroke=0;strokeColor=#248814;fillColor=#E9F3E6;verticalAlign=top;align=left;spacingLeft=30;fontColor=#248814;dashed=0;" vertex="1" parent="EULpzarY96xiYEv2TJPT-63">
          <mxGeometry x="410" y="640" width="290" height="190" as="geometry" />
        </mxCell>
        <mxCell id="EULpzarY96xiYEv2TJPT-79" value="" style="outlineConnect=0;dashed=0;verticalLabelPosition=bottom;verticalAlign=top;align=center;html=1;shape=mxgraph.aws3.rds;fillColor=#2E73B8;gradientColor=none;" vertex="1" parent="EULpzarY96xiYEv2TJPT-78">
          <mxGeometry x="30" y="70" width="72" height="81" as="geometry" />
        </mxCell>
        <mxCell id="EULpzarY96xiYEv2TJPT-80" value="slave" style="text;html=1;align=center;verticalAlign=middle;resizable=0;points=[];autosize=1;strokeColor=none;fillColor=none;" vertex="1" parent="EULpzarY96xiYEv2TJPT-78">
          <mxGeometry x="46" y="160" width="40" height="20" as="geometry" />
        </mxCell>
        <mxCell id="EULpzarY96xiYEv2TJPT-81" value="RDSは自動バックアップが&lt;br&gt;撮られるためS3などはいらない" style="text;html=1;resizable=0;autosize=1;align=center;verticalAlign=middle;points=[];fillColor=none;strokeColor=none;rounded=0;shadow=1;" vertex="1" parent="EULpzarY96xiYEv2TJPT-78">
          <mxGeometry x="100" y="110" width="190" height="30" as="geometry" />
        </mxCell>
        <mxCell id="EULpzarY96xiYEv2TJPT-82" value="" style="edgeStyle=orthogonalEdgeStyle;html=1;endArrow=openThin;elbow=vertical;startArrow=openThin;startFill=0;endFill=0;strokeColor=#545B64;rounded=0;exitX=0.5;exitY=1;exitDx=0;exitDy=0;exitPerimeter=0;entryX=0.5;entryY=0;entryDx=0;entryDy=0;entryPerimeter=0;" edge="1" parent="EULpzarY96xiYEv2TJPT-63" source="EULpzarY96xiYEv2TJPT-67" target="EULpzarY96xiYEv2TJPT-79">
          <mxGeometry width="100" relative="1" as="geometry">
            <mxPoint x="228.29999999999995" y="595" as="sourcePoint" />
            <mxPoint x="206" y="732" as="targetPoint" />
          </mxGeometry>
        </mxCell>
        <mxCell id="EULpzarY96xiYEv2TJPT-83" value="" style="outlineConnect=0;dashed=0;verticalLabelPosition=bottom;verticalAlign=top;align=center;html=1;shape=mxgraph.aws3.rds;fillColor=#2E73B8;gradientColor=none;" vertex="1" parent="EULpzarY96xiYEv2TJPT-63">
          <mxGeometry x="180" y="694.5" width="72" height="81" as="geometry" />
        </mxCell>
        <mxCell id="EULpzarY96xiYEv2TJPT-84" value="" style="outlineConnect=0;dashed=0;verticalLabelPosition=bottom;verticalAlign=top;align=center;html=1;shape=mxgraph.aws3.classic_load_balancer;fillColor=#F58534;gradientColor=none;" vertex="1" parent="EULpzarY96xiYEv2TJPT-63">
          <mxGeometry x="315.75" y="70" width="114.25" height="102" as="geometry" />
        </mxCell>
        <mxCell id="EULpzarY96xiYEv2TJPT-86" value="master" style="text;html=1;align=center;verticalAlign=middle;resizable=0;points=[];autosize=1;strokeColor=none;fillColor=none;" vertex="1" parent="EULpzarY96xiYEv2TJPT-63">
          <mxGeometry x="191" y="800" width="50" height="20" as="geometry" />
        </mxCell>
        <mxCell id="EULpzarY96xiYEv2TJPT-87" value="" style="edgeStyle=orthogonalEdgeStyle;html=1;endArrow=block;elbow=vertical;startArrow=none;endFill=1;strokeColor=#545B64;rounded=0;entryX=0;entryY=0.5;entryDx=0;entryDy=0;entryPerimeter=0;" edge="1" parent="EULpzarY96xiYEv2TJPT-63" target="EULpzarY96xiYEv2TJPT-79">
          <mxGeometry width="100" relative="1" as="geometry">
            <mxPoint x="252" y="734.5" as="sourcePoint" />
            <mxPoint x="352" y="734.5" as="targetPoint" />
          </mxGeometry>
        </mxCell>
        <mxCell id="EULpzarY96xiYEv2TJPT-89" value="App" style="text;html=1;resizable=0;autosize=1;align=center;verticalAlign=middle;points=[];fillColor=none;strokeColor=none;rounded=0;shadow=1;" vertex="1" parent="EULpzarY96xiYEv2TJPT-63">
          <mxGeometry x="241" y="570" width="40" height="20" as="geometry" />
        </mxCell>
        <mxCell id="EULpzarY96xiYEv2TJPT-90" value="Private subnet" style="points=[[0,0],[0.25,0],[0.5,0],[0.75,0],[1,0],[1,0.25],[1,0.5],[1,0.75],[1,1],[0.75,1],[0.5,1],[0.25,1],[0,1],[0,0.75],[0,0.5],[0,0.25]];outlineConnect=0;gradientColor=none;html=1;whiteSpace=wrap;fontSize=12;fontStyle=0;container=1;pointerEvents=0;collapsible=0;recursiveResize=0;shape=mxgraph.aws4.group;grIcon=mxgraph.aws4.group_security_group;grStroke=0;strokeColor=#147EBA;fillColor=#E6F2F8;verticalAlign=top;align=left;spacingLeft=30;fontColor=#147EBA;dashed=0;" vertex="1" parent="EULpzarY96xiYEv2TJPT-63">
          <mxGeometry x="100" y="233" width="240.5" height="132" as="geometry" />
        </mxCell>
        <mxCell id="EULpzarY96xiYEv2TJPT-91" value="Public subnet" style="points=[[0,0],[0.25,0],[0.5,0],[0.75,0],[1,0],[1,0.25],[1,0.5],[1,0.75],[1,1],[0.75,1],[0.5,1],[0.25,1],[0,1],[0,0.75],[0,0.5],[0,0.25]];outlineConnect=0;gradientColor=none;html=1;whiteSpace=wrap;fontSize=12;fontStyle=0;container=1;pointerEvents=0;collapsible=0;recursiveResize=0;shape=mxgraph.aws4.group;grIcon=mxgraph.aws4.group_security_group;grStroke=0;strokeColor=#248814;fillColor=#E9F3E6;verticalAlign=top;align=left;spacingLeft=30;fontColor=#248814;dashed=0;" vertex="1" parent="EULpzarY96xiYEv2TJPT-90">
          <mxGeometry width="240" height="130" as="geometry" />
        </mxCell>
        <mxCell id="EULpzarY96xiYEv2TJPT-92" value="" style="outlineConnect=0;dashed=0;verticalLabelPosition=bottom;verticalAlign=top;align=center;html=1;shape=mxgraph.aws3.ec2;fillColor=#F58534;gradientColor=none;" vertex="1" parent="EULpzarY96xiYEv2TJPT-90">
          <mxGeometry x="77.5" y="32" width="76.5" height="93" as="geometry" />
        </mxCell>
        <mxCell id="EULpzarY96xiYEv2TJPT-93" value="Web" style="text;html=1;resizable=0;autosize=1;align=center;verticalAlign=middle;points=[];fillColor=none;strokeColor=none;rounded=0;shadow=1;" vertex="1" parent="EULpzarY96xiYEv2TJPT-90">
          <mxGeometry x="154" y="88" width="40" height="20" as="geometry" />
        </mxCell>
        <mxCell id="EULpzarY96xiYEv2TJPT-94" value="" style="edgeStyle=orthogonalEdgeStyle;html=1;endArrow=block;elbow=vertical;startArrow=none;endFill=1;strokeColor=#545B64;rounded=0;" edge="1" parent="EULpzarY96xiYEv2TJPT-63" source="EULpzarY96xiYEv2TJPT-84" target="EULpzarY96xiYEv2TJPT-92">
          <mxGeometry width="100" relative="1" as="geometry">
            <mxPoint x="280" y="292" as="sourcePoint" />
            <mxPoint x="380" y="292" as="targetPoint" />
          </mxGeometry>
        </mxCell>
        <mxCell id="EULpzarY96xiYEv2TJPT-95" value="" style="edgeStyle=orthogonalEdgeStyle;html=1;endArrow=block;elbow=vertical;startArrow=none;endFill=1;strokeColor=#545B64;rounded=0;exitX=1;exitY=0.5;exitDx=0;exitDy=0;exitPerimeter=0;" edge="1" parent="EULpzarY96xiYEv2TJPT-63" source="EULpzarY96xiYEv2TJPT-84">
          <mxGeometry width="100" relative="1" as="geometry">
            <mxPoint x="631.95" y="120" as="sourcePoint" />
            <mxPoint x="530" y="261" as="targetPoint" />
          </mxGeometry>
        </mxCell>
        <mxCell id="EULpzarY96xiYEv2TJPT-96" value="Private subnet" style="points=[[0,0],[0.25,0],[0.5,0],[0.75,0],[1,0],[1,0.25],[1,0.5],[1,0.75],[1,1],[0.75,1],[0.5,1],[0.25,1],[0,1],[0,0.75],[0,0.5],[0,0.25]];outlineConnect=0;gradientColor=none;html=1;whiteSpace=wrap;fontSize=12;fontStyle=0;container=1;pointerEvents=0;collapsible=0;recursiveResize=0;shape=mxgraph.aws4.group;grIcon=mxgraph.aws4.group_security_group;grStroke=0;strokeColor=#147EBA;fillColor=#E6F2F8;verticalAlign=top;align=left;spacingLeft=30;fontColor=#147EBA;dashed=0;" vertex="1" parent="EULpzarY96xiYEv2TJPT-63">
          <mxGeometry x="70" y="70" width="130" height="130" as="geometry" />
        </mxCell>
        <mxCell id="EULpzarY96xiYEv2TJPT-97" value="" style="outlineConnect=0;dashed=0;verticalLabelPosition=bottom;verticalAlign=top;align=center;html=1;shape=mxgraph.aws3.vpc_nat_gateway;fillColor=#F58534;gradientColor=none;" vertex="1" parent="EULpzarY96xiYEv2TJPT-96">
          <mxGeometry x="39" y="30" width="69" height="72" as="geometry" />
        </mxCell>
        <mxCell id="EULpzarY96xiYEv2TJPT-98" value="" style="edgeStyle=orthogonalEdgeStyle;html=1;endArrow=block;elbow=vertical;startArrow=none;endFill=1;strokeColor=#545B64;rounded=0;entryX=0.5;entryY=1;entryDx=0;entryDy=0;entryPerimeter=0;" edge="1" parent="EULpzarY96xiYEv2TJPT-63" target="EULpzarY96xiYEv2TJPT-97">
          <mxGeometry width="100" relative="1" as="geometry">
            <mxPoint x="170" y="298" as="sourcePoint" />
            <mxPoint x="220" y="200" as="targetPoint" />
            <Array as="points">
              <mxPoint x="140" y="298" />
              <mxPoint x="140" y="200" />
              <mxPoint x="144" y="200" />
            </Array>
          </mxGeometry>
        </mxCell>
        <mxCell id="EULpzarY96xiYEv2TJPT-99" value="" style="edgeStyle=orthogonalEdgeStyle;html=1;endArrow=none;elbow=vertical;startArrow=open;startFill=0;strokeColor=#545B64;rounded=0;" edge="1" parent="EULpzarY96xiYEv2TJPT-63" target="EULpzarY96xiYEv2TJPT-65">
          <mxGeometry width="100" relative="1" as="geometry">
            <mxPoint x="400" y="50" as="sourcePoint" />
            <mxPoint x="500" y="50" as="targetPoint" />
          </mxGeometry>
        </mxCell>
        <mxCell id="EULpzarY96xiYEv2TJPT-100" value="" style="outlineConnect=0;dashed=0;verticalLabelPosition=bottom;verticalAlign=top;align=center;html=1;shape=mxgraph.aws3.auto_scaling;fillColor=#F58534;gradientColor=none;" vertex="1" parent="EULpzarY96xiYEv2TJPT-63">
          <mxGeometry x="340.5" y="172" width="66.87" height="48" as="geometry" />
        </mxCell>
        <mxCell id="EULpzarY96xiYEv2TJPT-108" value="" style="outlineConnect=0;dashed=0;verticalLabelPosition=bottom;verticalAlign=top;align=center;html=1;shape=mxgraph.aws3.s3;fillColor=#E05243;gradientColor=none;" vertex="1" parent="EULpzarY96xiYEv2TJPT-63">
          <mxGeometry x="763" y="433.5" width="53.5" height="43" as="geometry" />
        </mxCell>
        <mxCell id="EULpzarY96xiYEv2TJPT-112" value="" style="edgeStyle=orthogonalEdgeStyle;html=1;endArrow=none;elbow=vertical;startArrow=block;startFill=1;strokeColor=#545B64;rounded=0;exitX=0.5;exitY=1;exitDx=0;exitDy=0;exitPerimeter=0;" edge="1" parent="EULpzarY96xiYEv2TJPT-63" source="EULpzarY96xiYEv2TJPT-108" target="EULpzarY96xiYEv2TJPT-83">
          <mxGeometry width="100" relative="1" as="geometry">
            <mxPoint x="763" y="360" as="sourcePoint" />
            <mxPoint x="863" y="360" as="targetPoint" />
            <Array as="points">
              <mxPoint x="790" y="630" />
              <mxPoint x="793" y="630" />
              <mxPoint x="793" y="660" />
              <mxPoint x="216" y="660" />
            </Array>
          </mxGeometry>
        </mxCell>
        <mxCell id="EULpzarY96xiYEv2TJPT-117" value="" style="outlineConnect=0;dashed=0;verticalLabelPosition=bottom;verticalAlign=top;align=center;html=1;shape=mxgraph.aws3.dynamo_db;fillColor=#2E73B8;gradientColor=none;" vertex="1" parent="EULpzarY96xiYEv2TJPT-63">
          <mxGeometry x="340.5" y="271" width="72" height="81" as="geometry" />
        </mxCell>
        <mxCell id="EULpzarY96xiYEv2TJPT-121" value="DynamoDB&lt;br&gt;にセッション情報を&lt;br&gt;保存する（グローバルテーブル）" style="text;html=1;resizable=0;autosize=1;align=center;verticalAlign=middle;points=[];fillColor=none;strokeColor=none;rounded=0;" vertex="1" parent="EULpzarY96xiYEv2TJPT-63">
          <mxGeometry x="298" y="365" width="190" height="50" as="geometry" />
        </mxCell>
        <mxCell id="EULpzarY96xiYEv2TJPT-119" value="" style="edgeStyle=orthogonalEdgeStyle;html=1;endArrow=openThin;elbow=vertical;startArrow=openThin;startFill=0;endFill=0;strokeColor=#545B64;rounded=0;exitX=1;exitY=0.5;exitDx=0;exitDy=0;exitPerimeter=0;" edge="1" parent="EULpzarY96xiYEv2TJPT-63" source="EULpzarY96xiYEv2TJPT-92" target="EULpzarY96xiYEv2TJPT-117">
          <mxGeometry width="100" relative="1" as="geometry">
            <mxPoint x="228.26666666666688" y="585" as="sourcePoint" />
            <mxPoint x="226" y="704.5" as="targetPoint" />
            <Array as="points">
              <mxPoint x="283" y="311" />
              <mxPoint x="283" y="311" />
            </Array>
          </mxGeometry>
        </mxCell>
        <mxCell id="EULpzarY96xiYEv2TJPT-124" value="" style="edgeStyle=orthogonalEdgeStyle;html=1;endArrow=openThin;elbow=vertical;startArrow=openThin;startFill=0;endFill=0;strokeColor=#545B64;rounded=0;exitX=0;exitY=0.5;exitDx=0;exitDy=0;exitPerimeter=0;entryX=1;entryY=0.5;entryDx=0;entryDy=0;entryPerimeter=0;" edge="1" parent="EULpzarY96xiYEv2TJPT-63" source="EULpzarY96xiYEv2TJPT-73" target="EULpzarY96xiYEv2TJPT-117">
          <mxGeometry width="100" relative="1" as="geometry">
            <mxPoint x="264" y="321.5" as="sourcePoint" />
            <mxPoint x="350.5" y="321.4666666666667" as="targetPoint" />
            <Array as="points">
              <mxPoint x="412" y="312" />
            </Array>
          </mxGeometry>
        </mxCell>
        <mxCell id="EULpzarY96xiYEv2TJPT-101" value="" style="edgeStyle=orthogonalEdgeStyle;html=1;endArrow=openThin;elbow=vertical;startArrow=openThin;startFill=0;endFill=0;strokeColor=#545B64;rounded=0;exitX=0;exitY=0.5;exitDx=0;exitDy=0;exitPerimeter=0;entryX=1;entryY=0.5;entryDx=0;entryDy=0;entryPerimeter=0;" edge="1" parent="1" source="EULpzarY96xiYEv2TJPT-108" target="EULpzarY96xiYEv2TJPT-59">
          <mxGeometry width="100" relative="1" as="geometry">
            <mxPoint x="-143.8199999999997" y="666.5" as="sourcePoint" />
            <mxPoint x="-617" y="952" as="targetPoint" />
          </mxGeometry>
        </mxCell>
        <mxCell id="EULpzarY96xiYEv2TJPT-102" value="" style="edgeStyle=orthogonalEdgeStyle;html=1;endArrow=openThin;elbow=vertical;startArrow=openThin;startFill=0;endFill=0;strokeColor=#545B64;rounded=0;" edge="1" parent="1" source="EULpzarY96xiYEv2TJPT-59" target="EULpzarY96xiYEv2TJPT-83">
          <mxGeometry width="100" relative="1" as="geometry">
            <mxPoint x="-543" y="832" as="sourcePoint" />
            <mxPoint x="-443" y="832" as="targetPoint" />
          </mxGeometry>
        </mxCell>
        <mxCell id="EULpzarY96xiYEv2TJPT-103" value="" style="edgeStyle=orthogonalEdgeStyle;html=1;endArrow=block;elbow=vertical;startArrow=none;endFill=1;strokeColor=#545B64;rounded=0;entryX=0.145;entryY=0.855;entryDx=0;entryDy=0;entryPerimeter=0;exitX=0.855;exitY=0.145;exitDx=0;exitDy=0;exitPerimeter=0;" edge="1" parent="1" source="EULpzarY96xiYEv2TJPT-97">
          <mxGeometry width="100" relative="1" as="geometry">
            <mxPoint x="-657" y="330" as="sourcePoint" />
            <mxPoint x="-472.4949999999999" y="281.55999999999995" as="targetPoint" />
            <Array as="points">
              <mxPoint x="-673" y="340" />
              <mxPoint x="-673" y="282" />
            </Array>
          </mxGeometry>
        </mxCell>
        <mxCell id="EULpzarY96xiYEv2TJPT-69" value="" style="sketch=0;points=[[0,0,0],[0.25,0,0],[0.5,0,0],[0.75,0,0],[1,0,0],[0,1,0],[0.25,1,0],[0.5,1,0],[0.75,1,0],[1,1,0],[0,0.25,0],[0,0.5,0],[0,0.75,0],[1,0.25,0],[1,0.5,0],[1,0.75,0]];outlineConnect=0;fontColor=#232F3E;gradientColor=#945DF2;gradientDirection=north;fillColor=#5A30B5;strokeColor=#ffffff;dashed=0;verticalLabelPosition=bottom;verticalAlign=top;align=center;html=1;fontSize=12;fontStyle=0;aspect=fixed;shape=mxgraph.aws4.resourceIcon;resIcon=mxgraph.aws4.route_53;" vertex="1" parent="1">
          <mxGeometry x="-61" y="20" width="58" height="58" as="geometry" />
        </mxCell>
        <mxCell id="EULpzarY96xiYEv2TJPT-104" value="" style="edgeStyle=orthogonalEdgeStyle;html=1;endArrow=block;elbow=vertical;startArrow=block;startFill=1;endFill=1;strokeColor=#545B64;rounded=0;exitX=0;exitY=0.7;exitDx=0;exitDy=0;exitPerimeter=0;" edge="1" parent="1" source="EULpzarY96xiYEv2TJPT-55" target="EULpzarY96xiYEv2TJPT-84">
          <mxGeometry width="100" relative="1" as="geometry">
            <mxPoint x="19.75" y="10" as="sourcePoint" />
            <mxPoint x="412.875" y="310" as="targetPoint" />
          </mxGeometry>
        </mxCell>
        <mxCell id="EULpzarY96xiYEv2TJPT-105" value="参照系（海外）" style="text;html=1;resizable=0;autosize=1;align=center;verticalAlign=middle;points=[];fillColor=none;strokeColor=none;rounded=0;" vertex="1" parent="1">
          <mxGeometry x="120" y="-60" width="100" height="20" as="geometry" />
        </mxCell>
        <mxCell id="EULpzarY96xiYEv2TJPT-106" value="更新系（日本）" style="text;html=1;resizable=0;autosize=1;align=center;verticalAlign=middle;points=[];fillColor=none;strokeColor=none;rounded=0;" vertex="1" parent="1">
          <mxGeometry x="-310" y="-60" width="100" height="20" as="geometry" />
        </mxCell>
        <mxCell id="EULpzarY96xiYEv2TJPT-107" value="" style="outlineConnect=0;dashed=0;verticalLabelPosition=bottom;verticalAlign=top;align=center;html=1;shape=mxgraph.aws3.cloudfront;fillColor=#F58536;gradientColor=none;" vertex="1" parent="1">
          <mxGeometry x="21" y="2.5" width="76.5" height="93" as="geometry" />
        </mxCell>
        <mxCell id="EULpzarY96xiYEv2TJPT-111" value="" style="edgeStyle=orthogonalEdgeStyle;html=1;endArrow=block;elbow=vertical;startArrow=block;startFill=1;endFill=1;strokeColor=#545B64;rounded=0;exitX=1;exitY=0.5;exitDx=0;exitDy=0;exitPerimeter=0;entryX=0;entryY=0.5;entryDx=0;entryDy=0;" edge="1" parent="1" source="EULpzarY96xiYEv2TJPT-108" target="EULpzarY96xiYEv2TJPT-1">
          <mxGeometry width="100" relative="1" as="geometry">
            <mxPoint x="-60" y="590" as="sourcePoint" />
            <mxPoint x="40" y="590" as="targetPoint" />
          </mxGeometry>
        </mxCell>
        <mxCell id="EULpzarY96xiYEv2TJPT-114" value="" style="outlineConnect=0;dashed=0;verticalLabelPosition=bottom;verticalAlign=top;align=center;html=1;shape=mxgraph.aws3.cloudformation;fillColor=#759C3E;gradientColor=none;" vertex="1" parent="1">
          <mxGeometry x="810" y="170" width="120" height="128" as="geometry" />
        </mxCell>
        <mxCell id="EULpzarY96xiYEv2TJPT-116" value="地理的リージョン" style="text;html=1;resizable=0;autosize=1;align=center;verticalAlign=middle;points=[];fillColor=none;strokeColor=none;rounded=0;" vertex="1" parent="1">
          <mxGeometry x="-95" y="95.5" width="110" height="20" as="geometry" />
        </mxCell>
        <mxCell id="EULpzarY96xiYEv2TJPT-126" value="" style="sketch=0;points=[[0,0,0],[0.25,0,0],[0.5,0,0],[0.75,0,0],[1,0,0],[0,1,0],[0.25,1,0],[0.5,1,0],[0.75,1,0],[1,1,0],[0,0.25,0],[0,0.5,0],[0,0.75,0],[1,0.25,0],[1,0.5,0],[1,0.75,0]];points=[[0,0,0],[0.25,0,0],[0.5,0,0],[0.75,0,0],[1,0,0],[0,1,0],[0.25,1,0],[0.5,1,0],[0.75,1,0],[1,1,0],[0,0.25,0],[0,0.5,0],[0,0.75,0],[1,0.25,0],[1,0.5,0],[1,0.75,0]];outlineConnect=0;fontColor=#232F3E;gradientColor=#F34482;gradientDirection=north;fillColor=#BC1356;strokeColor=#ffffff;dashed=0;verticalLabelPosition=bottom;verticalAlign=top;align=center;html=1;fontSize=12;fontStyle=0;aspect=fixed;shape=mxgraph.aws4.resourceIcon;resIcon=mxgraph.aws4.cloudwatch_2;" vertex="1" parent="1">
          <mxGeometry x="-181" y="10" width="78" height="78" as="geometry" />
        </mxCell>
      </root>
    </mxGraphModel>
  </diagram>
</mxfile>
